<svg width="36" height="36" viewBox="0 0 36 36" fill="none" xmlns="http://www.w3.org/2000/svg">
<circle cx="18" cy="18" r="18" fill="#0097BB"/>
<path d="M9.57227 20.1494C9.57227 22.0498 10.8984 23.2529 12.9219 23.2529C15.0137 23.2529 16.2715 22.0635 16.2715 19.9648V13.1357H14.207V19.9512C14.207 20.9424 13.7422 21.4688 12.8945 21.4688C12.1016 21.4688 11.582 20.9492 11.5684 20.1494H9.57227ZM18.6709 13.1357V23H22.5537C25.5068 23 27.1816 21.1953 27.1816 18.0029C27.1816 14.9062 25.4863 13.1357 22.5537 13.1357H18.6709ZM20.7354 14.8379H22.2256C24.0166 14.8379 25.0762 16 25.0762 18.0371C25.0762 20.1494 24.0508 21.2979 22.2256 21.2979H20.7354V14.8379Z" fill="white"/>
</svg>
