<svg width="171" height="13" viewBox="0 0 171 13" fill="none" xmlns="http://www.w3.org/2000/svg">
<path d="M2.92802 5.4988H6.12862V7.92977H2.92802V12.2659H0V1.21875H6.45836V3.64972H2.93242V5.4988H2.92802Z" fill="#005596"/>
<path d="M7.89258 12.27V0.136719H10.5964V12.27H7.89258Z" fill="#005596"/>
<path d="M16.4999 10.7005C16.8209 10.7005 17.0803 10.6488 17.2869 10.541C17.4891 10.4333 17.6782 10.2479 17.8452 9.985H20.4479C20.3468 10.3083 20.2501 10.5626 20.1578 10.7565C20.061 10.9462 19.9379 11.1315 19.7753 11.3039C19.428 11.7048 18.9663 12.0151 18.3948 12.2349C17.8233 12.4548 17.1902 12.5668 16.5043 12.5668C15.6294 12.5668 14.8601 12.403 14.2006 12.0755C13.5411 11.7479 13.0355 11.2824 12.675 10.6833C12.3145 10.0841 12.1387 9.38157 12.1387 8.57987C12.1387 7.76954 12.3101 7.05836 12.6531 6.4463C12.996 5.83425 13.4884 5.36875 14.1347 5.04117C14.7765 4.71359 15.5327 4.5498 16.3988 4.5498C17.6958 4.5498 18.7113 4.92048 19.4543 5.66184C20.1973 6.4032 20.5666 7.42904 20.5666 8.73934V9.00227H14.8733C14.882 10.1359 15.4272 10.7005 16.4999 10.7005ZM17.4891 6.57561C17.2122 6.36441 16.8648 6.26096 16.456 6.26096C16.0471 6.26096 15.7086 6.36441 15.4404 6.57561C15.1722 6.78681 15.0007 7.07991 14.9304 7.46352H18.0387C17.9508 7.07991 17.7661 6.78681 17.4891 6.57561Z" fill="#005596"/>
<path d="M26.1581 10.7005C26.4791 10.7005 26.7385 10.6488 26.9451 10.541C27.1473 10.4333 27.3364 10.2479 27.5034 9.985H30.1061C30.005 10.3083 29.9083 10.5626 29.816 10.7565C29.7192 10.9462 29.5961 11.1315 29.4335 11.3039C29.0862 11.7048 28.6245 12.0151 28.053 12.2349C27.4815 12.4548 26.8484 12.5668 26.1625 12.5668C25.2876 12.5668 24.5183 12.403 23.8588 12.0755C23.1993 11.7479 22.6937 11.2824 22.3332 10.6833C21.9727 10.0841 21.7969 9.38157 21.7969 8.57987C21.7969 7.76954 21.9683 7.05836 22.3113 6.4463C22.6542 5.83425 23.1466 5.36875 23.7929 5.04117C24.4347 4.71359 25.1909 4.5498 26.057 4.5498C27.354 4.5498 28.3695 4.92048 29.1125 5.66184C29.8555 6.4032 30.2248 7.42904 30.2248 8.73934V9.00227H24.5271C24.5359 10.1359 25.081 10.7005 26.1581 10.7005ZM27.1429 6.57561C26.866 6.36441 26.5186 6.26096 26.1098 6.26096C25.7009 6.26096 25.3624 6.36441 25.0942 6.57561C24.826 6.78681 24.6546 7.07991 24.5842 7.46352H27.6925C27.609 7.07991 27.4243 6.78681 27.1429 6.57561Z" fill="#005596"/>
<path d="M32.8444 11.8142C32.6334 11.5685 32.4751 11.3056 32.3652 11.0168C32.2553 10.728 32.2025 10.3013 32.2025 9.73663V6.90912H31.3057V4.77125H32.2025V2.5127H34.8932V4.77125H36.6869V6.90912H34.8932V9.84008C34.8932 10.2625 35.1218 10.4694 35.579 10.4694C35.7505 10.4694 35.9263 10.4435 36.111 10.3875C36.2956 10.3358 36.4539 10.2668 36.5814 10.1892V12.2409C36.1417 12.4262 35.5702 12.521 34.8624 12.521C33.8952 12.521 33.2225 12.284 32.8444 11.8142Z" fill="#005596"/>
<path d="M47.771 3.52983C47.4633 3.40915 47.1379 3.34449 46.7994 3.34449C46.4389 3.34449 46.14 3.43501 45.9026 3.61604C45.6651 3.79707 45.542 4.02551 45.542 4.29705C45.542 4.40481 45.5684 4.50825 45.6168 4.60308C45.6651 4.70221 45.7311 4.78411 45.8102 4.85307C45.9685 4.97807 46.14 5.0772 46.3202 5.14617C46.5005 5.21513 46.9181 5.34444 47.5776 5.54271C48.5536 5.82718 49.2614 6.21079 49.6923 6.69354C50.1231 7.17628 50.3429 7.83144 50.3429 8.65038C50.3429 9.90896 49.9605 10.8615 49.1911 11.5081C48.791 11.8399 48.3118 12.0986 47.7491 12.2796C47.1863 12.4606 46.5796 12.5511 45.9333 12.5511C45.2651 12.5511 44.5968 12.4477 43.9286 12.2365C43.2603 12.0253 42.6272 11.7149 42.0293 11.3055L43.2867 8.99089C43.7439 9.38312 44.1792 9.66759 44.5924 9.84862C45.0057 10.0297 45.4321 10.1202 45.8718 10.1202C46.2982 10.1202 46.6455 10.021 46.9049 9.82707C47.1643 9.63311 47.2918 9.3745 47.2918 9.05123C47.2918 8.74951 47.1687 8.50814 46.9269 8.33142C46.6807 8.1547 46.2147 7.96936 45.5289 7.7754C44.909 7.59006 44.4517 7.4349 44.144 7.31421C43.8406 7.19352 43.59 7.04698 43.3878 6.88319C42.7899 6.39613 42.4909 5.66339 42.4909 4.68497C42.4909 3.95223 42.6536 3.3057 42.9745 2.74106C43.2999 2.18073 43.7483 1.74109 44.3286 1.43075C44.9046 1.11611 45.5684 0.960938 46.3158 0.960938C46.9049 0.960938 47.5029 1.03852 48.1184 1.19369C48.7295 1.34886 49.323 1.56868 49.8901 1.85315L48.7251 4.09447C48.3997 3.84017 48.0788 3.65052 47.771 3.52983Z" fill="#005596"/>
<path d="M56.1415 10.7005C56.4625 10.7005 56.7219 10.6488 56.9285 10.541C57.1307 10.4333 57.3198 10.2479 57.4868 9.985H60.0895C59.9884 10.3083 59.8917 10.5626 59.7994 10.7565C59.7026 10.9462 59.5795 11.1315 59.4169 11.3039C59.0696 11.7048 58.6079 12.0151 58.0364 12.2349C57.4649 12.4548 56.8318 12.5668 56.1459 12.5668C55.271 12.5668 54.5017 12.403 53.8422 12.0755C53.1827 11.7479 52.6771 11.2824 52.3166 10.6833C51.9561 10.0841 51.7803 9.38157 51.7803 8.57987C51.7803 7.76954 51.9517 7.05836 52.2947 6.4463C52.6376 5.83425 53.13 5.36875 53.7763 5.04117C54.4181 4.71359 55.1743 4.5498 56.0404 4.5498C57.3374 4.5498 58.3529 4.92048 59.0959 5.66184C59.8389 6.4032 60.2082 7.42904 60.2082 8.73934V9.00227H54.5149C54.5236 10.1359 55.0644 10.7005 56.1415 10.7005ZM57.1307 6.57561C56.8538 6.36441 56.5064 6.26096 56.0976 6.26096C55.6887 6.26096 55.3502 6.36441 55.082 6.57561C54.8138 6.78681 54.6423 7.07991 54.572 7.46352H57.6803C57.5924 7.07991 57.4077 6.78681 57.1307 6.57561Z" fill="#005596"/>
<path d="M64.4382 5.9969C64.7591 5.51846 65.1108 5.17796 65.4977 4.97107C65.8846 4.76417 66.3682 4.66504 66.9485 4.66504C67.1288 4.66504 67.3003 4.66935 67.4717 4.67797V7.21238C67.2519 7.11325 67.0672 7.04428 66.9134 7.00549C66.7595 6.9667 66.5661 6.94515 66.3374 6.94515C65.0713 6.94515 64.4382 7.64772 64.4382 9.05716V12.2683H61.7344V4.76417H64.4382V5.9969Z" fill="#005596"/>
<path d="M74.9326 4.7666H77.9529L73.961 12.2707H72.154L68.2061 4.7666H71.2396L73.0641 8.60701L74.9326 4.7666Z" fill="#005596"/>
<path d="M81.4572 0.830841C81.7517 1.11963 81.8968 1.46875 81.8968 1.87823C81.8968 2.29632 81.7517 2.65407 81.4572 2.93854C81.1626 3.22733 80.8065 3.36956 80.3888 3.36956C79.958 3.36956 79.5975 3.22302 79.3029 2.92992C79.0084 2.63683 78.8633 2.27908 78.8633 1.86098C78.8633 1.46013 79.0128 1.11532 79.3117 0.82653C79.6107 0.537745 79.9712 0.395508 80.3888 0.395508C80.8065 0.399818 81.1626 0.542056 81.4572 0.830841ZM79.026 12.2702V4.76608H81.7298V12.2702H79.026Z" fill="#005596"/>
<path d="M88.6459 6.82584C88.4304 6.75257 88.2018 6.71377 87.9512 6.71377C87.4149 6.71377 86.9708 6.88618 86.6191 7.22669C86.2718 7.5672 86.0959 8.00684 86.0959 8.54562C86.0959 9.06285 86.2718 9.49387 86.6279 9.83438C86.9796 10.1749 87.4237 10.3473 87.9512 10.3473C88.2106 10.3473 88.4524 10.3085 88.6766 10.2309C88.9009 10.1533 89.1295 10.024 89.3581 9.85162V12.1102C89.0108 12.2567 88.6898 12.3602 88.3997 12.4248C88.1095 12.4895 87.7974 12.5196 87.4588 12.5196C86.6895 12.5196 85.986 12.3472 85.3442 11.9981C84.7023 11.6533 84.1967 11.1749 83.8274 10.5714C83.4581 9.96368 83.2734 9.29991 83.2734 8.5801C83.2734 7.81719 83.4581 7.12756 83.8274 6.5155C84.1967 5.89914 84.7067 5.4164 85.3573 5.06296C86.008 4.70952 86.7334 4.53711 87.5336 4.53711C87.8809 4.53711 88.1974 4.56728 88.4744 4.63193C88.7514 4.69659 89.0459 4.80434 89.3581 4.96382V7.20514C89.0987 7.02411 88.8613 6.89911 88.6459 6.82584Z" fill="#005596"/>
<path d="M94.9765 10.7005C95.293 10.7005 95.5568 10.6488 95.7591 10.541C95.9613 10.4333 96.1503 10.2479 96.3218 9.985H98.9245C98.8234 10.3083 98.7266 10.5626 98.6343 10.7565C98.5376 10.9462 98.4145 11.1315 98.2518 11.3039C97.9045 11.7048 97.4429 12.0151 96.8714 12.2349C96.2998 12.4548 95.6667 12.5668 94.9809 12.5668C94.1016 12.5668 93.3366 12.403 92.6772 12.0755C92.0177 11.7479 91.5121 11.2824 91.1516 10.6833C90.7911 10.0841 90.6152 9.38157 90.6152 8.57987C90.6152 7.76954 90.7867 7.05836 91.1296 6.4463C91.4725 5.83425 91.9649 5.36875 92.6112 5.04117C93.2575 4.71359 94.0093 4.5498 94.8754 4.5498C96.1723 4.5498 97.1879 4.92048 97.9309 5.66184C98.6739 6.4032 99.0432 7.42904 99.0432 8.73934V9.00227H93.3498C93.3586 10.1359 93.8994 10.7005 94.9765 10.7005ZM95.9613 6.57561C95.6843 6.36441 95.337 6.26096 94.9281 6.26096C94.5193 6.26096 94.1807 6.36441 93.9126 6.57561C93.6444 6.78681 93.4729 7.07991 93.4026 7.46352H96.5108C96.4273 7.07991 96.2427 6.78681 95.9613 6.57561Z" fill="#005596"/>
<path d="M104.094 6.33575C103.857 6.33575 103.659 6.38747 103.505 6.49092C103.351 6.59437 103.272 6.72367 103.272 6.87884C103.272 6.9866 103.303 7.0728 103.36 7.14176C103.421 7.21073 103.536 7.27107 103.703 7.32279C103.87 7.37452 104.129 7.44348 104.481 7.52106C105.237 7.66761 105.8 7.92192 106.165 8.28397C106.53 8.64603 106.71 9.12878 106.71 9.73652C106.71 10.3012 106.56 10.7968 106.261 11.2235C105.963 11.6503 105.536 11.9778 104.982 12.2063C104.428 12.4347 103.791 12.5511 103.061 12.5511C101.993 12.5511 100.977 12.2623 100.01 11.6847L100.981 9.82272C101.351 10.0555 101.724 10.2451 102.111 10.3787C102.494 10.5167 102.841 10.5856 103.149 10.5856C103.386 10.5856 103.588 10.5296 103.747 10.4175C103.905 10.3055 103.984 10.1589 103.984 9.98651C103.984 9.80979 103.905 9.68049 103.751 9.58997C103.597 9.50377 103.29 9.40894 102.832 9.30981C102.023 9.14602 101.447 8.90034 101.104 8.58569C100.762 8.26673 100.59 7.80985 100.59 7.21504C100.59 6.37454 100.893 5.71508 101.5 5.22802C102.107 4.74528 102.942 4.50391 103.997 4.50391C104.468 4.50391 104.89 4.53839 105.268 4.61166C105.646 4.68494 106.046 4.80993 106.464 4.98665L105.554 6.70212C105.061 6.45644 104.573 6.33575 104.094 6.33575Z" fill="#005596"/>
<path d="M113.872 12.2702V3.65403H111.493V1.21875H119.222V3.64972H116.8V12.2659H113.872V12.2702Z" fill="#005596"/>
<path d="M122.525 5.9969C122.846 5.51846 123.197 5.17796 123.584 4.97107C123.971 4.76417 124.455 4.66504 125.035 4.66504C125.215 4.66504 125.387 4.66935 125.558 4.67797V7.21238C125.338 7.11325 125.154 7.04428 124.995 7.00549C124.842 6.9667 124.648 6.94515 124.419 6.94515C123.153 6.94515 122.52 7.64772 122.52 9.05716V12.2683H119.816V4.76417H122.52V5.9969H122.525Z" fill="#005596"/>
<path d="M135.498 12.2718H132.795V11.4529C132.496 11.8236 132.157 12.0951 131.779 12.2675C131.401 12.4399 130.953 12.5261 130.434 12.5261C129.717 12.5261 129.062 12.3494 128.469 11.9917C127.875 11.6339 127.409 11.1469 127.071 10.5348C126.732 9.91846 126.561 9.24176 126.561 8.49609C126.561 7.76335 126.732 7.09526 127.071 6.48752C127.409 5.88409 127.871 5.40134 128.46 5.05221C129.049 4.69878 129.695 4.52637 130.403 4.52637C130.891 4.52637 131.326 4.60395 131.709 4.75912C132.091 4.91429 132.452 5.16428 132.795 5.50479V4.77205H135.498V12.2718ZM129.902 7.30215C129.559 7.63404 129.387 8.03058 129.387 8.48747C129.387 8.97452 129.559 9.3883 129.897 9.7245C130.236 10.0607 130.649 10.2288 131.137 10.2288C131.616 10.2288 132.025 10.0607 132.364 9.7245C132.702 9.3883 132.874 8.97883 132.874 8.5004C132.874 8.03058 132.702 7.62973 132.364 7.29784C132.025 6.96596 131.612 6.79786 131.124 6.79786C130.654 6.80648 130.245 6.97027 129.902 7.30215Z" fill="#005596"/>
<path d="M142.412 6.82584C142.197 6.75257 141.968 6.71377 141.718 6.71377C141.181 6.71377 140.737 6.88618 140.386 7.22669C140.038 7.5672 139.863 8.00684 139.863 8.54562C139.863 9.06285 140.038 9.49387 140.395 9.83438C140.746 10.1749 141.19 10.3473 141.718 10.3473C141.977 10.3473 142.219 10.3085 142.443 10.2309C142.667 10.1533 142.896 10.024 143.125 9.85162V12.1102C142.777 12.2567 142.456 12.3602 142.166 12.4248C141.876 12.4895 141.564 12.5196 141.225 12.5196C140.456 12.5196 139.753 12.3472 139.111 11.9981C138.469 11.649 137.963 11.1749 137.594 10.5714C137.225 9.96368 137.04 9.29991 137.04 8.5801C137.04 7.81719 137.225 7.12756 137.594 6.5155C137.963 5.89914 138.473 5.4164 139.128 5.06296C139.783 4.70952 140.504 4.53711 141.305 4.53711C141.652 4.53711 141.968 4.56728 142.245 4.63193C142.522 4.69659 142.817 4.80434 143.129 4.96382V7.20514C142.861 7.02411 142.628 6.89911 142.412 6.82584Z" fill="#005596"/>
<path d="M150.462 4.7659H154.155L150.33 8.2227L154.397 12.2657H150.598L147.622 9.21837V12.2657H144.918V0.136719H147.622V7.4641L150.462 4.7659Z" fill="#005596"/>
<path d="M158.908 10.7005C159.225 10.7005 159.488 10.6488 159.691 10.541C159.893 10.4333 160.082 10.2479 160.253 9.985H162.856C162.755 10.3083 162.658 10.5626 162.566 10.7565C162.469 10.9462 162.346 11.1315 162.183 11.3039C161.836 11.7048 161.375 12.0151 160.803 12.2349C160.231 12.4548 159.598 12.5668 158.913 12.5668C158.033 12.5668 157.268 12.403 156.609 12.0755C155.949 11.7479 155.444 11.2824 155.083 10.6833C154.723 10.0841 154.547 9.38157 154.547 8.57987C154.547 7.76954 154.718 7.05836 155.061 6.4463C155.404 5.83425 155.897 5.36875 156.543 5.04117C157.189 4.71359 157.941 4.5498 158.807 4.5498C160.104 4.5498 161.12 4.92048 161.863 5.66184C162.606 6.4032 162.975 7.42904 162.975 8.73934V9.00227H157.281C157.286 10.1359 157.831 10.7005 158.908 10.7005ZM159.893 6.57561C159.616 6.36441 159.269 6.26096 158.86 6.26096C158.451 6.26096 158.112 6.36441 157.844 6.57561C157.576 6.78681 157.405 7.07991 157.334 7.46352H160.442C160.359 7.07991 160.174 6.78681 159.893 6.57561Z" fill="#005596"/>
<path d="M167.205 5.9969C167.526 5.51846 167.878 5.17796 168.265 4.97107C168.652 4.76417 169.135 4.66504 169.716 4.66504C169.896 4.66504 170.067 4.66935 170.239 4.67797V7.21238C170.019 7.11325 169.834 7.04428 169.676 7.00549C169.522 6.9667 169.329 6.94515 169.1 6.94515C167.834 6.94515 167.201 7.64772 167.201 9.05716V12.2683H164.497V4.76417H167.201V5.9969H167.205Z" fill="#005596"/>
</svg>
